<svg xmlns="http://www.w3.org/2000/svg" id="Layer_1" data-name="Layer 1" viewBox="0 0 1458.4 612"><defs><style>      .cls-1 {        fill: #f48020;        stroke-width: 0px;      }    </style></defs><g><path class="cls-1" d="M568.4,90.5h17.2v79.9h109.1v-79.9h17.2v174.4h-17.2v-79.1h-109.1v79.1h-17.2V90.5Z"></path><path class="cls-1" d="M842.6,142.1c10,5.6,17.8,13.4,23.5,23.3,5.7,10,8.5,21.3,8.5,33.9s-2.8,24.2-8.5,34.3c-5.7,10.1-13.5,17.9-23.5,23.5-10,5.6-21.3,8.4-33.9,8.4s-24-2.8-33.9-8.4c-10-5.6-17.8-13.4-23.5-23.5-5.7-10.1-8.5-21.5-8.5-34.3s2.8-24,8.5-33.9c5.7-10,13.5-17.8,23.5-23.3,10-5.6,21.3-8.4,33.9-8.4s24,2.8,33.9,8.4ZM783.2,154.7c-7.5,4.3-13.3,10.4-17.5,18.2-4.2,7.8-6.2,16.7-6.2,26.7s2.1,19.1,6.2,27c4.2,7.8,10,13.9,17.5,18.2,7.5,4.3,16,6.5,25.5,6.5s18-2.2,25.5-6.5c7.5-4.3,13.3-10.4,17.5-18.2,4.2-7.8,6.2-16.8,6.2-27s-2.1-18.9-6.2-26.7c-4.2-7.8-10-13.9-17.5-18.2-7.5-4.3-16-6.5-25.5-6.5s-18,2.2-25.5,6.5Z"></path><path class="cls-1" d="M1005.2,142.1c9.6,5.6,17,13.4,22.3,23.5,5.3,10.1,8,21.5,8,34.3s-2.7,24-8,33.9c-5.3,10-12.7,17.8-22.2,23.3-9.5,5.6-20.3,8.4-32.4,8.4s-22.5-2.7-31.4-8.1c-9-5.4-16-12.9-21-22.6v78.6h-16.7v-179.2h16.7v30.2c4.8-9.6,11.8-17.2,20.8-22.6,9.1-5.4,19.5-8.1,31.3-8.1s23,2.8,32.6,8.4ZM994.9,244.4c7.5-4.4,13.3-10.5,17.5-18.3,4.2-7.8,6.2-16.7,6.2-26.7s-2.1-18.6-6.2-26.5c-4.2-7.8-10-13.9-17.5-18.3-7.5-4.4-15.9-6.6-25.2-6.6s-17.9,2.2-25.3,6.6c-7.4,4.4-13.2,10.5-17.5,18.3-4.2,7.8-6.4,16.6-6.4,26.5s2.1,18.9,6.2,26.7c4.2,7.8,10,13.9,17.5,18.3,7.5,4.4,16,6.6,25.5,6.6s17.7-2.2,25.2-6.6Z"></path><path class="cls-1" d="M1160.8,153.1c10.6,12.9,15.6,30.2,14.7,52h-109c1.2,14,6.3,25.2,15.5,33.8,9.1,8.6,20.5,12.9,33.9,12.9s16.1-1.5,23.2-4.5c7.2-3,13.3-7.2,18.5-12.7l9.5,9.5c-6.3,6.8-13.9,12.1-22.8,15.8-8.9,3.7-18.7,5.6-29.3,5.6s-23.9-2.8-33.7-8.4c-9.8-5.6-17.5-13.4-23.1-23.3-5.6-10-8.4-21.4-8.4-34.2s2.8-24,8.4-34.1c5.6-10.1,13.3-17.9,23.1-23.5,9.8-5.6,20.9-8.4,33.2-8.4,20.3,0,35.8,6.4,46.4,19.3ZM1160.6,192.1c-.8-13.6-5.4-24.5-13.6-32.6-8.2-8.1-19-12.1-32.3-12.1s-24.1,4.1-32.9,12.2c-8.8,8.2-13.9,19-15.2,32.4h94.1Z"></path><path class="cls-1" d="M698.7,520.5l-20.7-46.4h-96.8l-20.5,46.4h-18.5l78.6-174.4h18l78.6,174.4h-18.7ZM587.9,458.6h83.3l-41.9-94.3-41.4,94.3Z"></path><path class="cls-1" d="M794.5,511.5c-9,6.2-18.6,9.4-28.9,9.7-10,0-17.9-3.1-23.7-9.2-5.8-6.2-8.7-15.4-8.7-27.7v-77.9h-18.7l-.2-13h19v-33.7h16.7v33.7l42.4-.2v13.2h-42.4v75.1c0,16.1,6,24.2,18,24.2s13.9-2.3,21.7-7l5,12.7Z"></path><path class="cls-1" d="M818.4,335.3h16.7v185.2h-16.7v-185.2Z"></path><path class="cls-1" d="M996.6,389.7v130.8h-16.7v-29.4c-5,9.7-12,17.1-21,22.5-9,5.3-19.4,8-31.2,8s-23.3-2.8-32.9-8.5c-9.7-5.7-17.1-13.6-22.5-23.7-5.3-10.1-8-21.6-8-34.4s2.7-24.2,8-34.2c5.3-10,12.8-17.8,22.3-23.5,9.6-5.7,20.4-8.5,32.6-8.5s22.5,2.7,31.6,8c9.1,5.3,16.1,12.8,21.1,22.5v-29.4h16.7ZM964.4,494.1c9-8.6,14.1-19.8,15.5-33.6v-10.5c-1.3-13.8-6.5-25.1-15.5-33.8-9-8.7-20.2-13.1-33.7-13.1s-18,2.2-25.5,6.7c-7.5,4.5-13.4,10.7-17.7,18.6-4.3,7.9-6.5,16.8-6.5,26.8s2.1,18.9,6.4,26.7c4.2,7.8,10.1,13.9,17.7,18.3,7.6,4.4,16.1,6.6,25.6,6.6,13.5,0,24.7-4.3,33.7-12.9Z"></path><path class="cls-1" d="M1143.2,402.8c8.9,9.1,13.4,21.5,13.4,37.3v80.4h-17v-76.4c0-12.3-3.4-22-10.2-28.9-6.8-7-16.3-10.5-28.4-10.5-13.5.2-24.2,4.3-32.3,12.5-8.1,8.2-12.7,19.1-13.8,32.9v70.4h-16.7v-130.8h16.7v30.4c4.5-10.1,11.1-17.8,19.8-23,8.7-5.2,19.3-7.8,31.8-8,15.6,0,27.9,4.5,36.8,13.6Z"></path><path class="cls-1" d="M1259.6,511.5c-9,6.2-18.6,9.4-28.9,9.7-10,0-17.9-3.1-23.7-9.2-5.8-6.2-8.7-15.4-8.7-27.7v-77.9h-18.7l-.2-13h19v-33.7h16.7v33.7l42.4-.2v13.2h-42.4v75.1c0,16.1,6,24.2,18,24.2s13.9-2.3,21.7-7l5,12.7Z"></path><path class="cls-1" d="M1399.1,389.7v130.8h-16.7v-29.4c-5,9.7-12,17.1-21,22.5-9,5.3-19.4,8-31.2,8s-23.3-2.8-32.9-8.5c-9.7-5.7-17.1-13.6-22.5-23.7-5.3-10.1-8-21.6-8-34.4s2.7-24.2,8-34.2c5.3-10,12.8-17.8,22.3-23.5,9.6-5.7,20.4-8.5,32.6-8.5s22.5,2.7,31.6,8c9.1,5.3,16.1,12.8,21.1,22.5v-29.4h16.7ZM1366.9,494.1c9-8.6,14.1-19.8,15.5-33.6v-10.5c-1.3-13.8-6.5-25.1-15.5-33.8-9-8.7-20.2-13.1-33.7-13.1s-18,2.2-25.5,6.7c-7.5,4.5-13.4,10.7-17.7,18.6-4.3,7.9-6.5,16.8-6.5,26.8s2.1,18.9,6.4,26.7c4.2,7.8,10.1,13.9,17.7,18.3,7.6,4.4,16.1,6.6,25.6,6.6,13.5,0,24.7-4.3,33.7-12.9Z"></path></g><path class="cls-1" d="M452.2,505.7V65.7h-95.2v6.9l-184.8,177.7c-6-.8-11.9-1.6-17.8-2.2V63.4H59.2v484.8h95.2v-6.6h1.3l145.8-139.1c8.9,8,16.8,16.7,23.8,26.2,25,34,30.4,68.8,31.6,81.1v38.4l95.2.4.3-34.1c0-1.3,0-4.3-.3-8.8ZM357,324.7c-8.7-7.1-17.7-13.7-26.9-19.6l26.9-25.7v45.4ZM357,206.9l-76,72.3c-15.1-6.4-30.6-11.7-46.1-16l122.1-116.9v60.6ZM154.4,343.8c17.4,2.1,33.8,5.2,49.1,9.2l-49.1,46.7v-55.8ZM154.4,406.1l54.5-51.8c16.3,4.5,31.4,10.1,45.1,16.7l-98.4,94h-1.2v-58.9ZM285.7,281.3l71.3-67.8v59.2l-31.1,29.7c-13-8.1-26.4-15.1-40.2-21.1ZM357,79.2v60.5l-127.5,122c-17.2-4.6-34.4-8-51.4-10.6l178.8-171.9ZM154.4,536.3v-66.5h3.1l101-96.5c14.7,7.4,27.8,16.1,39.4,26l-143.6,137Z"></path></svg>